# xmcd CD database file
#
# Track frame offsets:
#	150
#	25571
#	46066
#	81408
#	118368
#	133535
#	156862
#	184424
#	204156
#	235935
#	266810
#	288222
#	311166
#	325683
#
# Disc length: 4521 seconds
#
# Revision: 1
# Processed by: cddbd v1.5.1PL2 Copyright (c) Steve Scherf et al.
# Submitted via: ExactAudioCopy v0.90b4
#
DISCID=c311a70e
DTITLE=Legends Of Acid Jazz
DYEAR=1970
DGENRE=Jazz
TTITLE0=The Black Cat
TTITLE1=Long Long Time
TTITLE2=Piece To Keep Away Evil Spirits
TTITLE3=Jug Eyes
TTITLE4=Something
TTITLE5=Hi Ruth!
TTITLE6=You Talk That Talk
TTITLE7=Body And Soul
TTITLE8=The People's Choice
TTITLE9=Katea's Dance
TTITLE10=The Sun Died
TTITLE11=Out Of It
TTITLE12=I Can't Stop Loving You
TTITLE13=My Babe
EXTD=YEAR: 1970
EXTT0=
EXTT1=
EXTT2=
EXTT3=
EXTT4=
EXTT5=
EXTT6=
EXTT7=
EXTT8=
EXTT9=
EXTT10=
EXTT11=
EXTT12=
EXTT13=
PLAYORDER=
